<?xml version="1.0" encoding="utf-8"?>

<!DOCTYPE svg PUBLIC "-//W3C//DTD SVG 1.1//EN" "http://www.w3.org/Graphics/SVG/1.1/DTD/svg11.dtd">
<!-- Uploaded to: SVG Repo, www.svgrepo.com, Generator: SVG Repo Mixer Tools -->
<svg version="1.1" id="_x32_" xmlns="http://www.w3.org/2000/svg" xmlns:xlink="http://www.w3.org/1999/xlink" 
	 viewBox="0 0 512 512"  xml:space="preserve">
<style type="text/css">
	.st0{fill:#000000;}
</style>
<g>
	<path class="st0" d="M243.627,92.96c-57.797,0-110.299,23.484-148.151,61.38c-37.88,37.842-61.376,90.355-61.364,148.135
		C34.1,360.276,57.596,412.79,95.476,450.63c37.852,37.876,90.354,61.381,148.151,61.37c57.796,0.012,110.298-23.494,148.15-61.37
		c37.881-37.84,61.376-90.354,61.364-148.156c0.012-57.78-23.483-110.293-61.364-148.135
		C353.925,116.444,301.422,92.96,243.627,92.96z M363.3,422.16c-30.69,30.652-72.875,49.55-119.674,49.56
		c-46.8-0.01-88.984-18.909-119.675-49.56c-30.658-30.695-49.56-72.887-49.566-119.685c0.006-46.798,18.909-88.978,49.566-119.675
		c30.69-30.652,72.875-49.55,119.675-49.572v169.247h169.24C412.861,349.273,393.964,391.465,363.3,422.16z"/>
	<rect x="184.449" y="0" class="st0" width="118.355" height="55.241"/>
	
		<rect x="388.546" y="96.658" transform="matrix(0.7071 0.7071 -0.7071 0.7071 210.4764 -270.4355)" class="st0" width="86.284" height="44.391"/>
</g>
</svg>